<svg xmlns="http://www.w3.org/2000/svg" viewBox="0 0 800 450" role="img" aria-label="Teacher student LLM distillation flow">
  <defs><marker id="a" markerWidth="8" markerHeight="8" refX="7" refY="4" orient="auto"><path d="M0 0 8 4 0 8z" fill="#64748b"/></marker></defs>
  <rect width="800" height="450" rx="26" fill="#f8fafc"/>
  <rect x="48" y="48" width="704" height="354" rx="22" fill="#fff" stroke="#d7dee8"/>
  <g font-family="Inter, Arial, sans-serif">
    <text x="72" y="93" font-size="28" font-weight="800" fill="#111827">LLM Distillation</text>
    <g text-anchor="middle" font-size="18" font-weight="700">
      <rect x="88" y="176" width="132" height="66" rx="15" fill="#dbeafe"/><text x="154" y="216" fill="#1d4ed8">Teacher</text>
      <rect x="318" y="136" width="132" height="56" rx="14" fill="#ede9fe"/><text x="384" y="171" fill="#6d28d9">logits</text>
      <rect x="318" y="230" width="132" height="56" rx="14" fill="#fef3c7"/><text x="384" y="265" fill="#a16207">CE + KL</text>
      <rect x="584" y="176" width="132" height="66" rx="15" fill="#dcfce7"/><text x="650" y="216" fill="#15803d">Student</text>
    </g>
    <g stroke="#64748b" stroke-width="3" fill="none" marker-end="url(#a)"><path d="M220 209h90"/><path d="M450 164c58 0 60 45 126 45"/><path d="M450 258c58 0 60-49 126-49"/></g>
    <rect x="205" y="322" width="390" height="42" rx="21" fill="#f1f5f9"/>
    <text x="400" y="349" text-anchor="middle" font-size="16" fill="#475569">temperature scaling · cached teacher outputs</text>
  </g>
</svg>
