<svg xmlns="http://www.w3.org/2000/svg" viewBox="0 0 800 450" role="img" aria-label="React calculator component layout">
  <rect width="800" height="450" rx="28" fill="#eff6ff"/>
  <rect x="68" y="58" width="664" height="334" rx="26" fill="#ffffff" stroke="#bfdbfe"/>
  <text x="96" y="104" font-family="Inter, Arial, sans-serif" font-size="34" font-weight="800" fill="#1d4ed8">React Calculator</text>
  <text x="96" y="134" font-family="Inter, Arial, sans-serif" font-size="17" fill="#2563eb">component state, display formatting, keypad actions</text>
  <rect x="102" y="190" width="196" height="124" rx="18" fill="#1e293b"/>
  <rect x="124" y="214" width="152" height="34" rx="9" fill="#0f172a"/>
  <text x="264" y="238" text-anchor="end" font-family="Inter, Arial, sans-serif" font-size="20" font-weight="700" fill="#ffffff">42</text>
  <g fill="#e0f2fe">
    <rect x="124" y="262" width="28" height="24" rx="6"/><rect x="160" y="262" width="28" height="24" rx="6"/><rect x="196" y="262" width="28" height="24" rx="6"/><rect x="232" y="262" width="28" height="24" rx="6"/>
  </g>
  <g font-family="Inter, Arial, sans-serif" text-anchor="middle" font-weight="700">
    <rect x="376" y="168" width="112" height="58" rx="14" fill="#dbeafe"/><text x="432" y="203" font-size="15" fill="#1d4ed8">state</text>
    <rect x="376" y="256" width="112" height="58" rx="14" fill="#bfdbfe"/><text x="432" y="291" font-size="15" fill="#1d4ed8">handlers</text>
    <rect x="572" y="212" width="102" height="58" rx="14" fill="#93c5fd"/><text x="623" y="247" font-size="15" fill="#1e3a8a">render</text>
  </g>
  <path d="M298 252h78M488 197c34 0 42 44 84 44M488 285c34 0 42-44 84-44" stroke="#2563eb" stroke-width="3" fill="none" stroke-linecap="round"/>
</svg>
